<svg width="68" height="29" viewBox="0 0 68 29" fill="none" xmlns="http://www.w3.org/2000/svg">
<rect width="35" height="29" transform="matrix(-1 0 0 1 35 0)" fill="#202020"/>
<path d="M12.2929 15.7071C11.9024 15.3166 11.9024 14.6834 12.2929 14.2929L18.6569 7.92893C19.0474 7.5384 19.6805 7.5384 20.0711 7.92893C20.4616 8.31945 20.4616 8.95262 20.0711 9.34314L14.4142 15L20.0711 20.6568C20.4616 21.0474 20.4616 21.6805 20.0711 22.0711C19.6805 22.4616 19.0474 22.4616 18.6569 22.0711L12.2929 15.7071ZM68 16L13 16L13 14L68 14L68 16Z" fill="white"/>
<rect width="33" height="2" transform="matrix(-1 0 0 1 68 14)" fill="#202020"/>
</svg>
