<svg width="68" height="29" viewBox="0 0 68 29" fill="none" xmlns="http://www.w3.org/2000/svg">
<rect x="33" width="35" height="29" fill="white"/>
<path d="M55.7071 15.7071C56.0976 15.3166 56.0976 14.6834 55.7071 14.2929L49.3431 7.92893C48.9526 7.5384 48.3195 7.5384 47.9289 7.92893C47.5384 8.31945 47.5384 8.95262 47.9289 9.34314L53.5858 15L47.9289 20.6568C47.5384 21.0474 47.5384 21.6805 47.9289 22.0711C48.3195 22.4616 48.9526 22.4616 49.3431 22.0711L55.7071 15.7071ZM8.74228e-08 16L55 16L55 14L-8.74228e-08 14L8.74228e-08 16Z" fill="#161B1C"/>
<rect y="14" width="33" height="2" fill="white"/>
</svg>
