<svg width="138" height="17" viewBox="0 0 138 17" fill="none" xmlns="http://www.w3.org/2000/svg">
<path d="M19.668 0.863999C19.1693 0.893332 18.81 0.951999 18.59 1.04C18.37 1.128 18.216 1.29667 18.128 1.546C18.0547 1.79533 18.018 2.19867 18.018 2.756V13.668C18.018 14.2253 18.0547 14.6287 18.128 14.878C18.216 15.1273 18.37 15.296 18.59 15.384C18.8247 15.472 19.184 15.5307 19.668 15.56V16C18.8613 15.956 17.71 15.934 16.214 15.934C14.6447 15.934 13.486 15.956 12.738 16V15.56C13.266 15.5307 13.6473 15.472 13.882 15.384C14.1313 15.296 14.3 15.1273 14.388 14.878C14.476 14.6287 14.52 14.2253 14.52 13.668V2.162L9.218 16.022H8.866L2.926 1.854V12.392C2.926 13.2573 2.97 13.8953 3.058 14.306C3.146 14.702 3.33667 14.9953 3.63 15.186C3.92333 15.362 4.4 15.4867 5.06 15.56V16C4.488 15.956 3.696 15.934 2.684 15.934C1.87733 15.934 1.23933 15.956 0.77 16V15.56C1.254 15.4867 1.606 15.362 1.826 15.186C2.06067 15.01 2.21467 14.7313 2.288 14.35C2.376 13.9687 2.42 13.404 2.42 12.656V2.756C2.42 2.19867 2.376 1.79533 2.288 1.546C2.21467 1.29667 2.06067 1.128 1.826 1.04C1.606 0.951999 1.254 0.893332 0.77 0.863999V0.424C1.23933 0.467999 1.87733 0.489999 2.684 0.489999C4.03333 0.489999 5.192 0.467999 6.16 0.424L10.604 11.138L14.652 0.489999H16.214C17.71 0.489999 18.8613 0.467999 19.668 0.424V0.863999ZM28.9508 0.115999C30.5055 0.115999 31.8621 0.431332 33.0208 1.062C34.1941 1.69267 35.1035 2.60933 35.7488 3.812C36.3941 5 36.7168 6.42267 36.7168 8.08C36.7168 9.69333 36.3868 11.1233 35.7268 12.37C35.0668 13.6167 34.1428 14.5847 32.9548 15.274C31.7815 15.9633 30.4395 16.308 28.9288 16.308C27.3741 16.308 26.0101 15.9927 24.8368 15.362C23.6781 14.7313 22.7761 13.822 22.1308 12.634C21.4855 11.4313 21.1628 10.0013 21.1628 8.344C21.1628 6.73067 21.4928 5.30067 22.1528 4.054C22.8128 2.80733 23.7295 1.83933 24.9028 1.15C26.0908 0.460666 27.4401 0.115999 28.9508 0.115999ZM28.8628 0.511999C28.0561 0.511999 27.3448 0.841999 26.7288 1.502C26.1128 2.14733 25.6361 3.05667 25.2988 4.23C24.9761 5.40333 24.8148 6.74533 24.8148 8.256C24.8148 9.78133 24.9981 11.1233 25.3648 12.282C25.7461 13.4407 26.2521 14.3353 26.8828 14.966C27.5281 15.5967 28.2395 15.912 29.0168 15.912C29.8235 15.912 30.5348 15.5893 31.1508 14.944C31.7668 14.284 32.2361 13.3673 32.5588 12.194C32.8961 11.0207 33.0648 9.67867 33.0648 8.168C33.0648 6.64267 32.8741 5.30067 32.4928 4.142C32.1261 2.98333 31.6201 2.08867 30.9748 1.458C30.3441 0.827332 29.6401 0.511999 28.8628 0.511999ZM51.7861 0.424C51.6834 1.81733 51.6321 3.064 51.6321 4.164C51.6321 4.85333 51.6541 5.41067 51.6981 5.836H51.1921C50.8401 4.032 50.3561 2.76333 49.7401 2.03C49.1388 1.29667 48.3101 0.929999 47.2541 0.929999H46.7481V13.492C46.7481 14.108 46.8068 14.5553 46.9241 14.834C47.0561 15.1127 47.2761 15.3033 47.5841 15.406C47.9068 15.494 48.4128 15.5453 49.1021 15.56V16C47.2541 15.956 45.8608 15.934 44.9221 15.934C43.9981 15.934 42.6561 15.956 40.8961 16V15.56C41.5854 15.5453 42.0841 15.494 42.3921 15.406C42.7148 15.3033 42.9348 15.1127 43.0521 14.834C43.1841 14.5553 43.2501 14.108 43.2501 13.492V0.929999H42.7661C42.0621 0.929999 41.4608 1.084 40.9621 1.392C40.4781 1.7 40.0601 2.21333 39.7081 2.932C39.3561 3.636 39.0554 4.604 38.8061 5.836H38.3001C38.3441 5.41067 38.3661 4.85333 38.3661 4.164C38.3661 3.064 38.3148 1.81733 38.2121 0.424C39.5468 0.467999 41.8128 0.489999 45.0101 0.489999C48.2074 0.489999 50.4661 0.467999 51.7861 0.424ZM61.0914 0.115999C62.6461 0.115999 64.0028 0.431332 65.1614 1.062C66.3348 1.69267 67.2441 2.60933 67.8894 3.812C68.5348 5 68.8574 6.42267 68.8574 8.08C68.8574 9.69333 68.5274 11.1233 67.8674 12.37C67.2074 13.6167 66.2834 14.5847 65.0954 15.274C63.9221 15.9633 62.5801 16.308 61.0694 16.308C59.5148 16.308 58.1508 15.9927 56.9774 15.362C55.8188 14.7313 54.9168 13.822 54.2714 12.634C53.6261 11.4313 53.3034 10.0013 53.3034 8.344C53.3034 6.73067 53.6334 5.30067 54.2934 4.054C54.9534 2.80733 55.8701 1.83933 57.0434 1.15C58.2314 0.460666 59.5808 0.115999 61.0914 0.115999ZM61.0034 0.511999C60.1968 0.511999 59.4854 0.841999 58.8694 1.502C58.2534 2.14733 57.7768 3.05667 57.4394 4.23C57.1168 5.40333 56.9554 6.74533 56.9554 8.256C56.9554 9.78133 57.1388 11.1233 57.5054 12.282C57.8868 13.4407 58.3928 14.3353 59.0234 14.966C59.6688 15.5967 60.3801 15.912 61.1574 15.912C61.9641 15.912 62.6754 15.5893 63.2914 14.944C63.9074 14.284 64.3768 13.3673 64.6994 12.194C65.0368 11.0207 65.2054 9.67867 65.2054 8.168C65.2054 6.64267 65.0148 5.30067 64.6334 4.142C64.2668 2.98333 63.7608 2.08867 63.1154 1.458C62.4848 0.827332 61.7808 0.511999 61.0034 0.511999ZM89.1285 0.489999C89.8179 0.489999 90.3825 0.467999 90.8225 0.424V0.863999C90.4559 1.01067 90.0965 1.29667 89.7445 1.722C89.4072 2.13267 89.1212 2.71933 88.8865 3.482L85.0145 16.044C84.8532 16.0293 84.5965 16.022 84.2445 16.022C83.8925 16.022 83.6359 16.0293 83.4745 16.044L80.2405 6.232L76.9845 16.044C76.8232 16.0293 76.5665 16.022 76.2145 16.022C75.8625 16.022 75.6059 16.0293 75.4445 16.044L70.5165 2.272C70.3405 1.788 70.1279 1.436 69.8785 1.216C69.6292 0.995999 69.3799 0.878666 69.1305 0.863999V0.424C70.0105 0.467999 71.1032 0.489999 72.4085 0.489999C73.6405 0.489999 74.5425 0.467999 75.1145 0.424V0.863999C74.6012 0.937333 74.3445 1.22333 74.3445 1.722C74.3445 1.95667 74.4105 2.28667 74.5425 2.712L77.7545 12.018L79.9765 5.462L78.8545 2.052C78.7079 1.62667 78.5319 1.33333 78.3265 1.172C78.1359 0.995999 77.9085 0.893332 77.6445 0.863999V0.424C78.4659 0.467999 79.5145 0.489999 80.7905 0.489999C82.2279 0.489999 83.2839 0.467999 83.9585 0.424V0.863999C83.4305 0.878666 83.0492 0.944666 82.8145 1.062C82.5799 1.16467 82.4625 1.37 82.4625 1.678C82.4625 1.942 82.5359 2.28667 82.6825 2.712L85.6965 11.908L87.7865 5.264C88.1239 4.164 88.2925 3.31333 88.2925 2.712C88.2925 2.08133 88.1312 1.62667 87.8085 1.348C87.5005 1.05467 87.0312 0.893332 86.4005 0.863999V0.424C87.3979 0.467999 88.3072 0.489999 89.1285 0.489999ZM99.2906 0.115999C100.845 0.115999 102.202 0.431332 103.361 1.062C104.534 1.69267 105.443 2.60933 106.089 3.812C106.734 5 107.057 6.42267 107.057 8.08C107.057 9.69333 106.727 11.1233 106.067 12.37C105.407 13.6167 104.483 14.5847 103.295 15.274C102.121 15.9633 100.779 16.308 99.2686 16.308C97.714 16.308 96.35 15.9927 95.1766 15.362C94.018 14.7313 93.116 13.822 92.4706 12.634C91.8253 11.4313 91.5026 10.0013 91.5026 8.344C91.5026 6.73067 91.8326 5.30067 92.4926 4.054C93.1526 2.80733 94.0693 1.83933 95.2426 1.15C96.4306 0.460666 97.78 0.115999 99.2906 0.115999ZM99.2026 0.511999C98.396 0.511999 97.6846 0.841999 97.0686 1.502C96.4526 2.14733 95.976 3.05667 95.6386 4.23C95.316 5.40333 95.1546 6.74533 95.1546 8.256C95.1546 9.78133 95.338 11.1233 95.7046 12.282C96.086 13.4407 96.592 14.3353 97.2226 14.966C97.868 15.5967 98.5793 15.912 99.3566 15.912C100.163 15.912 100.875 15.5893 101.491 14.944C102.107 14.284 102.576 13.3673 102.899 12.194C103.236 11.0207 103.405 9.67867 103.405 8.168C103.405 6.64267 103.214 5.30067 102.833 4.142C102.466 2.98333 101.96 2.08867 101.315 1.458C100.684 0.827332 99.98 0.511999 99.2026 0.511999ZM115.508 0.863999C114.98 0.893332 114.591 0.951999 114.342 1.04C114.107 1.128 113.946 1.29667 113.858 1.546C113.77 1.79533 113.726 2.19867 113.726 2.756V13.932C113.726 14.4013 113.763 14.746 113.836 14.966C113.909 15.1713 114.034 15.3107 114.21 15.384C114.401 15.4573 114.701 15.494 115.112 15.494H116.19C117.187 15.494 118.045 15.0467 118.764 14.152C119.497 13.2573 119.974 12.0693 120.194 10.588H120.7C120.656 11.0867 120.634 11.732 120.634 12.524C120.634 13.932 120.685 15.0907 120.788 16C119.791 15.956 118.111 15.934 115.75 15.934C112.553 15.934 110.162 15.956 108.578 16V15.56C109.062 15.5307 109.414 15.472 109.634 15.384C109.869 15.296 110.023 15.1273 110.096 14.878C110.184 14.6287 110.228 14.2253 110.228 13.668V2.756C110.228 2.19867 110.184 1.79533 110.096 1.546C110.023 1.29667 109.869 1.128 109.634 1.04C109.414 0.951999 109.062 0.893332 108.578 0.863999V0.424C109.326 0.467999 110.485 0.489999 112.054 0.489999C113.55 0.489999 114.701 0.467999 115.508 0.424V0.863999ZM128.825 0.424C131.685 0.424 133.827 1.07667 135.249 2.382C136.672 3.67267 137.383 5.55733 137.383 8.036C137.383 9.63467 137.031 11.0353 136.327 12.238C135.638 13.426 134.633 14.35 133.313 15.01C132.008 15.67 130.446 16 128.627 16L127.263 15.978C126.413 15.9487 125.797 15.934 125.415 15.934C123.905 15.934 122.775 15.956 122.027 16V15.56C122.511 15.5307 122.863 15.472 123.083 15.384C123.318 15.296 123.472 15.1273 123.545 14.878C123.633 14.6287 123.677 14.2253 123.677 13.668V2.756C123.677 2.19867 123.633 1.79533 123.545 1.546C123.472 1.29667 123.318 1.128 123.083 1.04C122.863 0.951999 122.511 0.893332 122.027 0.863999V0.424C122.643 0.467999 123.531 0.489999 124.689 0.489999H125.371L126.251 0.467999C127.454 0.438666 128.312 0.424 128.825 0.424ZM128.803 0.819999C128.349 0.819999 128.004 0.871332 127.769 0.973999C127.549 1.07667 127.395 1.26 127.307 1.524C127.219 1.788 127.175 2.184 127.175 2.712V13.712C127.175 14.24 127.219 14.636 127.307 14.9C127.395 15.164 127.549 15.3473 127.769 15.45C128.004 15.5527 128.356 15.604 128.825 15.604C130.6 15.604 131.861 14.988 132.609 13.756C133.357 12.5093 133.731 10.632 133.731 8.124C133.731 5.616 133.343 3.77533 132.565 2.602C131.803 1.414 130.549 0.819999 128.803 0.819999Z" fill="white"/>
</svg>
